<?xml version="1.0" encoding="UTF-8" standalone="no"?>
<svg
   width="32"
   height="34"
   viewBox="0 0 32 34"
   fill="none"
   version="1.1"
   id="svg9"
   xml:space="preserve"
   xmlns="http://www.w3.org/2000/svg"
   xmlns:svg="http://www.w3.org/2000/svg"><defs
     id="defs9" /><path
     fill-rule="evenodd"
     clip-rule="evenodd"
     d="m 3.43265,20.7677 c 0.7257,0.7385 0.72569,1.9358 -3e-5,2.6742 l -0.03716,0.0378 c -0.72572,0.7385 -1.90234,0.7385 -2.628043,0 -0.7257063,-0.7385 -0.7256951,-1.9357 2.5e-5,-2.6742 l 0.037166,-0.0378 c 0.725722,-0.7385 1.902332,-0.7384 2.628042,0 z"
     fill="#B2DDFF"
     id="path1"
     style="fill:none;stroke:#000000;stroke-opacity:1" /><path
     fill-rule="evenodd"
     clip-rule="evenodd"
     d="m 12.1689,21.3375 c 0.7244,0.7398 0.7223,1.9371 -0.0048,2.6742 l -5.14748,5.219 C 6.2896,29.9678 5.11299,29.9657 4.38859,29.2259 3.66419,28.4861 3.66632,27.2888 4.39334,26.5517 l 5.14751,-5.219 c 0.72705,-0.7371 1.90365,-0.735 2.62805,0.0048 z"
     fill="#53B1FD"
     id="path2"
     style="fill:none;fill-opacity:1;stroke:#000000;stroke-opacity:1" /><path
     fill-rule="evenodd"
     clip-rule="evenodd"
     d="m 19.1551,30.3217 c 0.5693,-0.8689 1.723,-1.1037 2.577,-0.5244 l 0.1115,0.0756 c 0.8539,0.5793 1.0847,1.7533 0.5154,2.6223 -0.5693,0.8689 -1.7231,1.1037 -2.577,0.5244 L 19.6705,32.944 c -0.854,-0.5793 -1.0847,-1.7533 -0.5154,-2.6223 z"
     fill="#B2DDFF"
     id="path3"
     style="fill:none;stroke:#000000;stroke-opacity:1" /><path
     fill-rule="evenodd"
     clip-rule="evenodd"
     d="m 31.4184,20.6544 c 0.7257,0.7385 0.7257,1.9358 0,2.6742 l -2.5273,2.5717 c -0.7257,0.7385 -1.9024,0.7385 -2.6281,0 -0.7257,-0.7384 -0.7257,-1.9357 0,-2.6742 l 2.5273,-2.5717 c 0.7257,-0.7384 1.9024,-0.7384 2.6281,0 z"
     fill="#53B1FD"
     id="path4"
     style="fill:none;stroke:#000000;stroke-opacity:1" /><path
     fill-rule="evenodd"
     clip-rule="evenodd"
     d="m 31.4557,11.1427 c 0.7257,0.7385 0.7257,1.9358 0,2.6742 l -18.676,19.004 c -0.7257,0.7385 -1.9023,0.7385 -2.628,0 -0.72571,-0.7384 -0.72571,-1.9357 0,-2.6742 l 18.676,-19.004 c 0.7257,-0.7384 1.9023,-0.7384 2.628,0 z"
     fill="#1570EF"
     id="path5"
     style="fill:#ffffff;fill-opacity:1;stroke:#000000;stroke-opacity:1" /><path
     fill-rule="evenodd"
     clip-rule="evenodd"
     d="m 27.925,5.29994 c 0.7258,0.73846 0.7258,1.93574 0,2.6742 L 17.184,18.9038 c -0.7257,0.7385 -1.9023,0.7385 -2.628,0 -0.7257,-0.7385 -0.7257,-1.9357 0,-2.6742 L 25.297,5.29994 c 0.7257,-0.73846 1.9023,-0.73846 2.628,0 z"
     fill="#1570ef"
     id="path6" /><path
     fill-rule="evenodd"
     clip-rule="evenodd"
     d="m 22.256,1.59299 c 0.7262,0.73796 0.727,1.93524 0.0018,2.67419 L 8.45055,18.3358 C 7.72533,19.0748 6.54871,19.0756 5.82251,18.3376 5.09631,17.5996 5.09552,16.4024 5.82075,15.6634 L 19.6279,1.59478 C 20.3532,0.855827 21.5298,0.855022 22.256,1.59299 Z"
     fill="#1570EF"
     id="path7"
     style="fill:none;fill-opacity:1;stroke:#000000;stroke-opacity:1" /><path
     fill-rule="evenodd"
     clip-rule="evenodd"
     d="M 8.58225,6.09619 C 9.30671,6.83592 9.30469,8.0332 8.57772,8.77038 L 3.17006,14.2541 C 2.4431,14.9913 1.26649,14.9893 0.542025,14.2495 -0.182438,13.5098 -0.180413,12.3125 0.546548,11.5753 L 5.95421,6.09159 C 6.68117,5.3544 7.85778,5.35646 8.58225,6.09619 Z"
     fill="#53B1FD"
     id="path8"
     style="fill:none;stroke:#000000;stroke-opacity:1" /><path
     fill-rule="evenodd"
     clip-rule="evenodd"
     d="m 11.893,0.624023 c 1.0263,0 1.8583,0.846607 1.8583,1.890947 v 0.18909 c 0,1.04434 -0.832,1.89095 -1.8583,1.89095 -1.0263,0 -1.8583,-0.84661 -1.8583,-1.89095 V 2.51497 c 0,-1.04434 0.832,-1.890947 1.8583,-1.890947 z"
     fill="#B2DDFF"
     id="path9"
     style="fill:none;stroke:#000000;stroke-opacity:1" /></svg>
